<svg width="28" height="29" viewBox="0 0 28 29" fill="none" xmlns="http://www.w3.org/2000/svg">
<g id="Group 325">
<path id="image 1 (Traced)" fill-rule="evenodd" clip-rule="evenodd" d="M9.55811 7.1477C9.00514 7.46068 8.82474 8.25727 9.19166 8.766C9.29397 8.9079 10.8743 10.3688 12.7036 12.0125L16.0296 15.001L12.7027 17.9899C10.873 19.6338 9.29256 21.095 9.19072 21.2369C9.07115 21.4035 9.00533 21.6432 9.00495 21.9136C9.00438 22.2855 9.04512 22.3694 9.37036 22.6661C9.70446 22.9708 9.78065 23 10.2415 23H10.7465L14.8732 19.2361L19 15.4723V15.041C19 14.7858 18.937 14.5228 18.8458 14.3971C18.6224 14.0888 11.4775 7.54798 11.0412 7.2522C10.6123 6.96142 9.96737 6.916 9.55811 7.1477Z" fill="#424961"/>
<path id="image 1 (Traced)_2" fill-rule="evenodd" clip-rule="evenodd" d="M9.55811 7.1477C9.00514 7.46068 8.82474 8.25727 9.19166 8.766C9.29397 8.9079 10.8743 10.3688 12.7036 12.0125L16.0296 15.001L12.7027 17.9899C10.873 19.6338 9.29256 21.095 9.19072 21.2369C9.07115 21.4035 9.00533 21.6432 9.00495 21.9136C9.00438 22.2855 9.04512 22.3694 9.37036 22.6661C9.70446 22.9708 9.78065 23 10.2415 23H10.7465L14.8732 19.2361L19 15.4723V15.041C19 14.7858 18.937 14.5228 18.8458 14.3971C18.6224 14.0888 11.4775 7.54798 11.0412 7.2522C10.6123 6.96142 9.96737 6.916 9.55811 7.1477Z" fill="#AFAFAF"/>
<rect id="Rectangle 418" x="0.5" y="0.5" width="27" height="28" rx="4.5" stroke="#AFAFAF"/>
</g>
</svg>
